<svg width="64" height="64" viewBox="0 0 64 64" fill="none" xmlns="http://www.w3.org/2000/svg">
<path d="M0 32C0 14.3269 14.3269 0 32 0C49.6731 0 64 14.3269 64 32C64 49.6731 49.6731 64 32 64C14.3269 64 0 49.6731 0 32Z" fill="#EAEAEA"/>
<path d="M23 45.5391V18.3906H26.3984V21.8281H26.4766C26.9062 21.0339 27.4336 20.3568 28.0586 19.7969C28.6966 19.224 29.4258 18.7812 30.2461 18.4688C31.0664 18.1562 31.9583 18 32.9219 18C34.6536 18 36.1641 18.4362 37.4531 19.3086C38.7552 20.168 39.7643 21.3919 40.4805 22.9805C41.1966 24.556 41.5547 26.4115 41.5547 28.5469V28.5664C41.5547 30.7018 41.1901 32.5573 40.4609 34.1328C39.7448 35.7083 38.7422 36.9323 37.4531 37.8047C36.1771 38.6641 34.6862 39.0938 32.9805 39.0938C32.0299 39.0938 31.138 38.944 30.3047 38.6445C29.4714 38.332 28.7292 37.8958 28.0781 37.3359C27.4401 36.763 26.9062 36.0859 26.4766 35.3047H26.3984V45.5391H23ZM32.2578 36.0859C33.4557 36.0859 34.4909 35.7799 35.3633 35.168C36.2357 34.556 36.9062 33.6901 37.375 32.5703C37.8438 31.4375 38.0781 30.1029 38.0781 28.5664V28.5469C38.0781 26.9844 37.8438 25.6432 37.375 24.5234C36.9062 23.3906 36.2357 22.5247 35.3633 21.9258C34.4909 21.3138 33.4557 21.0078 32.2578 21.0078C31.112 21.0078 30.0964 21.3203 29.2109 21.9453C28.3255 22.5703 27.6289 23.4492 27.1211 24.582C26.6263 25.7018 26.3789 27.0234 26.3789 28.5469V28.5664C26.3789 30.0768 26.6328 31.3984 27.1406 32.5312C27.6484 33.651 28.3385 34.5234 29.2109 35.1484C30.0964 35.7734 31.112 36.0859 32.2578 36.0859Z" fill="#1A1A1A"/>
</svg>
