<svg xmlns="http://www.w3.org/2000/svg" fill="none" viewBox="0 0 676 159">
  <path fill="currentColor" d="M630 107c11 0 22-9 22-25 0-17-11-25-22-25-12 0-22 8-22 25 0 16 10 25 22 25Zm0-71c26 0 45 19 45 46s-19 46-45 46-46-19-46-46 20-46 46-46ZM512 159h-23V38h22v11c4-7 14-13 27-13 26 0 40 20 40 46s-16 46-41 46c-12 0-21-5-25-11v42Zm43-77c0-15-10-25-22-25s-21 10-21 25 9 24 21 24 22-9 22-24Zm-184 43h-24V38h23v11c4-8 16-13 25-13 12 0 22 5 26 14 7-10 16-14 28-14 16 0 31 10 31 33v56h-23V74c0-10-4-17-15-17-10 0-16 8-16 17v51h-24V74c0-10-4-17-15-17s-16 8-16 17v51Zm-94-53h39c0-9-6-17-19-17s-19 9-20 17Zm41 23 20 5c-4 15-18 28-40 28-23 0-44-17-44-46 0-28 20-46 42-46 27 0 43 17 43 45v7h-62c0 12 10 20 22 20 11 0 17-6 19-13Z"/>
  <path fill="currentColor" d="M272 23h-40v102h-24V23h-40V0h104v23Z"/>
  <path fill="currentColor" fill-rule="evenodd" d="M126 126H0V0h126v126ZM43 35l-2 1-5 16c-1 1 0 1 1 1h15l1 2-11 34v2h17l2-2 11-34 2-2h16l2-1 5-16-1-1H43Z" clip-rule="evenodd"/>
</svg>