<svg width="676" height="159" viewBox="0 0 676 159" fill="none" xmlns="http://www.w3.org/2000/svg">
<path d="M629.734 106.649C641.23 106.649 651.843 98.3335 651.843 81.885C651.843 65.4364 641.23 57.1208 629.734 57.1208C618.238 57.1208 607.625 65.4364 607.625 81.885C607.625 98.3335 618.238 106.649 629.734 106.649ZM629.734 35.7273C655.73 35.7273 675.367 55.0061 675.367 81.885C675.367 108.764 655.738 128.043 629.734 128.043C603.73 128.043 584.101 108.589 584.101 81.885C584.101 55.181 603.73 35.7273 629.734 35.7273Z" fill="currentColor"/>
<path d="M512.058 159H488.534V38.3826H511.351V48.9959C515.246 42.2781 524.969 36.4349 538.055 36.4349C563.526 36.4349 578.202 55.8885 578.202 81.7101C578.202 107.532 561.754 127.518 537.172 127.518C525.144 127.518 516.303 122.74 512.058 116.905V159ZM555.036 81.885C555.036 66.5018 545.488 57.4785 533.46 57.4785C521.431 57.4785 511.708 66.5018 511.708 81.885C511.708 97.2682 521.439 106.466 533.46 106.466C545.48 106.466 555.036 97.4432 555.036 81.885Z" fill="currentColor"/>
<path d="M370.731 125.403H347.207V38.3826H369.666V48.9959C374.444 40.5053 385.582 35.9101 395.137 35.9101C406.991 35.9101 416.539 41.0379 420.959 50.4109C427.86 39.7977 437.05 35.9101 448.546 35.9101C464.636 35.9101 480.028 45.6409 480.028 68.9821V125.403H457.211V73.7601C457.211 64.387 452.616 57.3116 441.82 57.3116C431.739 57.3116 425.729 65.0946 425.729 74.4677V125.403H402.38V73.7601C402.38 64.387 397.602 57.3116 386.997 57.3116C376.391 57.3116 370.731 64.9197 370.731 74.4677V125.403Z" fill="currentColor"/>
<path d="M277.215 71.9873H316.122C315.773 63.3218 310.112 54.8312 296.669 54.8312C284.466 54.8312 277.748 64.0293 277.215 71.9873ZM318.428 94.6209L338.056 100.456C333.636 115.49 319.843 128.043 298.442 128.043C274.568 128.043 253.516 110.887 253.516 81.5273C253.516 53.7579 274.035 35.7194 296.319 35.7194C323.198 35.7194 339.297 52.8755 339.297 80.8197C339.297 84.1826 338.939 87.7203 338.939 88.0701H276.682C277.215 99.5658 286.938 107.882 298.617 107.882C309.58 107.882 315.598 102.396 318.428 94.6209Z" fill="currentColor"/>
<path d="M272.016 23.1663H232.401V125.395H207.82V23.1663H168.197V0H272.016V23.1663Z" fill="currentColor"/>
<path fill-rule="evenodd" clip-rule="evenodd" d="M125.526 125.526H0V0H125.526V125.526ZM42.7683 34.8337C42.0068 34.8337 41.3311 35.3215 41.0909 36.0439L35.6965 52.2291C35.4955 52.8323 35.9443 53.4542 36.5792 53.4542H52.2434C52.8782 53.4542 53.3269 54.0762 53.126 54.6794L41.5302 89.4675C41.3291 90.0707 41.7779 90.6926 42.4128 90.6926H59.2109C59.9724 90.6926 60.6481 90.2048 60.8883 89.4824L72.4957 54.6631C72.7358 53.9407 73.4116 53.4529 74.173 53.4529H89.8706C90.6321 53.4529 91.3084 52.965 91.5487 52.2427L96.9424 36.0588C97.1435 35.4556 96.6947 34.8337 96.0598 34.8337H42.7683Z" fill="currentColor"/>
</svg>
