<svg xmlns="http://www.w3.org/2000/svg" fill="none" viewBox="0 0 691 268">
	<style>
		path {
			stroke: #191919;
		}

		@media (prefers-color-scheme: dark) {
			path {
				stroke: #eee;
			}
		}
	</style>
	<path
		stroke="currentColor"
		stroke-linecap="round"
		stroke-linejoin="round"
		d="M346-27c-1-32 17-60 41-80 38-31 89-43 138-42 46 1 93 15 128 46 22 19 38 46 37 76 1 29-15 56-37 75-35 31-82 45-128 46-49 2-100-11-138-42-24-20-42-48-41-79Zm0 0c-1-53 43-82 92-84 43-2 85 11 122 32C611-49 663 4 664 66c1 41-27 70-65 79-31 8-64 5-94-4-51-15-97-46-129-88-17-23-30-51-30-80Zm0 0c0-53-44-82-93-84-43-2-85 11-122 32C80-49 28 4 27 66c-1 41 27 70 65 79 31 8 64 5 94-4 51-15 97-46 129-88 17-23 30-51 31-80Zm0 0c0-32-18-60-42-80-38-31-89-43-138-42-46 1-93 15-128 46A98 98 0 0 0 1-27C0 2 16 29 38 48c35 31 82 45 128 46 49 2 100-11 138-42 24-20 42-48 42-79Zm0 0c0-31 15-59 36-81a230 230 0 0 1 232-56c38 14 70 46 70 89-2 69-69 118-130 137-50 15-107 17-154-8-31-15-55-46-54-81Zm-1 0c0-36 24-67 55-82 47-25 104-23 154-8 61 19 128 68 130 137 0 43-32 75-70 89a230 230 0 0 1-232-56c-21-22-36-50-37-80Zm0 0c1-36-23-67-54-82-47-25-104-23-154-8C76-98 9-49 7 20c0 43 32 75 70 89a230 230 0 0 0 232-56c21-22 36-50 36-80Zm1 0c0-68 51-77 102-48 31 17 57 42 79 69 33 43 61 96 62 151 1 57-39 76-88 55-42-19-75-52-101-88-29-40-53-89-54-139Zm0 0c-1-30-14-58-31-81-32-42-78-73-129-88-30-9-63-12-94-4-38 9-66 39-65 79C28-56 83-2 137 27c37 20 79 33 121 29 47-4 88-33 88-83Zm0-51v345m0-589V23m286 85c-1-56-38-109-78-146-32-29-71-52-115-60-45-7-88 11-93 61-6 77 67 159 132 194 27 14 59 25 91 22 39-3 64-31 63-71Zm-95 67A349 349 0 0 0 475-5c-20-29-47-64-80-77-46-15-52 37-49 70 7 65 38 133 77 186 18 23 40 48 68 57 37 10 47-27 46-56Zm-59 23c-2-58-17-116-37-170-12-33-34-84-62-104-25-17-32 16-33 35a550 550 0 0 0 66 248c30 54 65 67 66-9Zm-65 14a936 936 0 0 0-34-242c-3-13-23-79-31-32-5 34-2 69 1 103a1154 1154 0 0 0 35 190c4 10 7 20 13 28 16 20 16-40 16-47Zm-135 0a936 936 0 0 1 34-242c3-13 23-79 31-32 5 34 2 69-1 103a1154 1154 0 0 1-35 190c-4 10-7 20-13 28-16 20-16-40-16-47Zm-65-14c2-58 17-116 37-170 12-33 34-84 62-104 25-17 32 16 33 35a550 550 0 0 1-66 248c-30 54-65 67-66-9Zm-59-23A349 349 0 0 1 216-5c20-29 47-64 80-77 46-15 52 37 49 70-7 65-38 133-77 186-18 23-40 48-68 57-37 10-47-27-46-56Zm-52-30c1-55 29-108 62-151 22-27 48-52 79-69 51-29 102-20 102 48-1 50-25 99-54 139-26 36-59 69-101 88-49 21-89 2-88-55Zm-43-37C60 52 97-1 137-38c32-29 71-52 115-60 45-7 88 11 93 61 6 77-67 159-132 194-27 14-59 25-91 22-39-3-64-31-63-71ZM7-75c0-43 32-75 70-89a230 230 0 0 1 232 56c21 22 36 50 36 81 1 35-23 66-54 81-47 25-104 23-154 8C76 43 9-6 7-75Zm52-88c-1-42 26-70 68-72 35-1 68 12 98 30 44 27 82 67 105 115 12 26 20 56 13 85-9 33-38 50-71 49-53-1-102-31-140-66-38-36-72-87-73-141Zm43-37c-1-57 39-76 88-55 42 19 75 52 101 88 29 40 53 89 54 140 0 67-51 76-102 47-31-17-57-42-79-69-33-43-61-96-62-151Zm52-30c-1-31 11-68 49-55 29 11 51 37 69 61 38 53 68 122 73 187 3 34-7 81-52 63-32-15-57-47-77-76l-16-28c-25-46-45-99-46-152Zm59-26c1-16 2-58 26-53 18 6 34 32 43 48a563 563 0 0 1 63 244c-1 21-9 54-36 33-27-22-47-69-59-102-20-54-35-112-37-170Zm65-21c0-8 0-67 16-47 6 8 9 18 13 28l11 42c12 49 19 98 24 148 3 34 6 69 1 103-8 47-28-19-31-32a958 958 0 0 1-34-242Zm135 0c0-8 0-67-16-47-6 8-9 18-13 28l-11 42c-12 49-19 98-24 148-3 34-6 69-1 103 8 47 28-19 31-32a958 958 0 0 0 34-242Zm65 21c-1-16-2-58-26-53-18 6-34 32-43 48a563 563 0 0 0-63 244c1 21 9 54 36 33 27-22 47-69 59-102 20-54 35-112 37-170Zm59 26c1-31-11-68-49-55-29 11-51 37-69 61-38 53-68 122-73 187-3 34 7 81 52 63 32-15 57-47 77-76l16-28c25-46 45-99 46-152Zm52 30c1-57-39-76-88-55-42 19-75 52-101 88-29 40-53 89-54 140 0 67 51 76 102 47 31-17 57-42 79-69 33-43 61-96 62-151Zm43 37c1-42-26-70-68-72-35-1-68 12-98 30-44 27-82 67-105 115-12 26-20 56-13 85 9 33 38 50 71 49 53-1 102-31 140-66 38-36 72-87 73-141Zm32 42c1-40-27-70-65-79-31-8-64-5-94 4-51 15-97 46-129 88-17 23-30 51-30 81-1 50 40 79 87 83 42 4 84-9 121-29 54-29 109-83 110-148Z"
		opacity=".1"
	/>
</svg>
