<svg xmlns="http://www.w3.org/2000/svg" width="18" height="18" fill="none" viewBox="0 0 18 18"><g clip-path="url(#a)"><path fill="#191919" d="M0 0h18v18H0z"/><path fill="#eee" fill-rule="evenodd" d="M18.48 18.474H-.48V-.474h18.958zM5.98 4.784a.27.27 0 0 0-.253.183L4.912 7.41a.14.14 0 0 0 .134.185H7.41a.14.14 0 0 1 .134.185l-1.752 5.25a.14.14 0 0 0 .134.186h2.537a.27.27 0 0 0 .253-.183l1.753-5.256a.27.27 0 0 1 .253-.182h2.371a.27.27 0 0 0 .254-.183l.814-2.443a.14.14 0 0 0-.133-.185z" clip-rule="evenodd"/></g><defs><clipPath id="a"><path fill="#fff" d="M0 0h18v18H0z"/></clipPath></defs></svg>