<svg width="3000" height="3000" viewBox="0 0 3000 3000" fill="none" xmlns="http://www.w3.org/2000/svg">
<rect width="3000" height="3000" fill="#2D2926"/>
<path d="M2033.29 1499.64H1506.91C1502.35 1499.64 1497.98 1501.47 1494.74 1504.72L954.6 2046.84C949.858 2051.6 947.75 2050.62 948.277 2043.9C949.226 2031.53 949.726 2017.54 949.779 2001.93C950.622 1822.42 950.041 1654.56 948.039 1498.37C946.933 1415.07 969.458 1323.19 1008.11 1248.3C1069.18 1129.92 1160.99 1044.03 1283.55 990.604C1418.23 931.894 1575.12 931.021 1711.3 988.7C1918.37 1076.37 2049.97 1272.81 2051.63 1498.85C2052.05 1557.56 2052.18 1740.78 2052.02 2048.5C2052.02 2052.42 2050.07 2054.38 2046.17 2054.38H1506.43C1505.82 2054.37 1505.22 2054.19 1504.71 2053.85C1504.28 2053.49 1503.99 2052.99 1503.87 2052.45C1503.85 2051.78 1504.1 2051.13 1504.56 2050.65L2038.92 1514.24C2047.57 1505.56 2045.77 1501.23 2033.55 1501.23L2033.29 1499.64Z" fill="#F5F1EA"/>
</svg>
