<svg width="2805" height="1451" viewBox="0 0 2805 1451" fill="none" xmlns="http://www.w3.org/2000/svg">
<rect width="2805" height="1451" fill="#F5F1EA"/>
<path d="M747.666 487.697H458.273C455.771 487.698 453.364 488.703 451.582 490.492L154.628 788.85C152.021 791.47 150.863 790.931 151.152 787.232C151.674 780.424 151.949 772.725 151.978 764.134C152.441 665.338 152.122 572.959 151.021 486.999C150.413 441.151 162.797 390.588 184.045 349.369C217.62 284.223 268.097 236.949 335.477 207.548C409.52 175.237 495.773 174.756 570.641 206.5C684.487 254.749 756.837 362.861 757.749 487.261C757.98 519.573 758.052 620.408 757.964 789.764C757.964 791.921 756.892 793 754.747 793H458.013C457.676 792.994 457.347 792.895 457.068 792.706C456.831 792.509 456.668 792.237 456.605 791.935C456.595 791.568 456.73 791.212 456.982 790.944L750.761 495.731C755.517 490.957 754.527 488.57 747.809 488.57L747.666 487.697Z" fill="#D4A929"/>
<path d="M1036.36 799.617C978.055 799.617 930.301 783.797 905.105 764.168L901.297 672.469H917.117C932.645 741.902 980.691 774.715 1038.41 774.715C1092.9 774.715 1128.64 743.66 1128.64 697.664C1128.64 654.012 1101.69 627.645 1043.39 607.137L1014.97 597.176C943.777 572.273 906.277 534.188 906.277 476.18C906.277 405.867 963.992 361.336 1051.3 361.336C1101.1 361.336 1141.82 375.398 1162.92 392.098L1166.73 481.746H1150.61C1137.43 416.414 1100.22 386.238 1048.95 386.238C992.41 386.238 961.941 414.949 961.941 457.723C961.941 500.789 992.117 523.348 1047.49 542.977L1075.32 552.938C1149.44 579.012 1184.01 617.391 1184.01 677.449C1184.01 750.398 1118.68 799.617 1036.36 799.617ZM1293.88 441.902C1273.66 441.902 1257.55 426.375 1257.55 406.453C1257.55 386.531 1273.66 371.297 1293.88 371.297C1314.09 371.297 1330.2 386.531 1330.2 406.453C1330.2 426.375 1314.09 441.902 1293.88 441.902ZM1328.74 499.617V747.469C1328.74 765.926 1333.43 770.613 1368.58 774.715V792H1230.89V774.715C1266.04 770.613 1271.02 765.926 1271.02 747.469V555.574C1271.02 539.754 1268.68 536.238 1251.98 531.551L1230.89 526.277V511.043L1328.74 499.617ZM1414.58 597.176C1414.58 536.824 1469.66 496.688 1537.92 496.688C1561.06 496.688 1581.86 501.082 1597.68 507.82L1699.64 502.547V528.621L1622.29 524.812C1645.44 538.289 1660.09 564.656 1660.09 594.539C1660.09 656.355 1602.08 694.148 1539.09 694.148C1529.13 694.148 1518.88 692.977 1504.23 690.633C1478.74 697.664 1467.31 709.676 1467.31 725.203C1467.31 744.246 1484.01 754.207 1515.36 754.207H1579.52C1647.49 754.207 1686.45 782.039 1686.45 832.137C1686.45 893.074 1623.46 935.555 1539.68 935.555C1453.84 935.555 1401.98 905.086 1401.98 860.555C1401.98 829.793 1430.11 806.355 1484.89 797.273C1447.68 795.516 1420.14 777.059 1420.44 747.176C1420.44 717.879 1445.34 696.785 1486.65 685.359C1445.05 674.52 1414.58 643.172 1414.58 597.176ZM1472.88 593.953C1472.88 642.879 1500.71 672.469 1539.09 672.469C1575.42 672.469 1602.08 642 1602.08 597.176C1602.08 549.715 1577.18 518.367 1535.87 518.367C1497.49 518.367 1472.88 549.422 1472.88 593.953ZM1452.96 853.23C1452.96 886.922 1485.18 911.531 1541.43 911.531C1599.44 911.531 1637.53 886.336 1637.53 849.129C1637.53 820.125 1617.31 802.254 1569.85 802.254H1501.88C1469.66 807.527 1452.96 826.57 1452.96 853.23ZM1820.34 499.617V546.199C1837.04 517.488 1871.61 496.688 1916.14 496.688C1975.03 496.688 2016.04 528.914 2016.04 588.68V747.469C2016.04 765.926 2020.14 770.613 2055.89 774.715V792H1920.54V774.715C1953.93 770.613 1958.04 766.512 1958.04 748.934V603.328C1958.04 554.695 1932.25 529.5 1889.77 529.5C1856.67 529.5 1833.23 544.148 1821.51 563.191V748.934C1821.51 766.512 1825.61 770.613 1859.01 774.715V792H1723.66V774.715C1758.82 770.613 1763.8 765.926 1763.8 747.469V555.574C1763.8 539.754 1761.45 536.238 1744.75 531.551L1723.66 526.277V511.043L1820.34 499.617ZM2097.2 648.738C2097.2 559.969 2152.27 496.98 2234.3 496.98C2311.06 496.98 2354.42 545.027 2354.42 619.441C2354.42 625.887 2354.13 632.918 2353.54 637.605H2156.08C2158.72 714.363 2203.84 765.047 2271.51 765.047C2302.27 765.047 2330.69 753.914 2348.27 736.629V753.914C2328.35 779.402 2289.38 797.859 2240.46 797.859C2158.43 797.859 2097.2 740.438 2097.2 648.738ZM2233.72 520.711C2190.07 520.711 2159.89 552.938 2156.38 617.684L2298.76 617.098C2298.76 615.34 2298.76 613.582 2298.76 611.531C2298.76 555.281 2275.91 520.711 2233.72 520.711ZM2434.7 711.141V528.914H2396.02V516.902L2484.21 447.176H2492.41V505.184L2578.84 502.547V528.914L2492.41 526.863V702.938C2492.41 750.984 2514.38 765.926 2543.97 765.926C2559.21 765.926 2573.86 761.238 2583.52 753.914V771.199C2571.51 785.848 2544.85 797.859 2513.21 797.859C2470.14 797.859 2434.7 774.129 2434.7 711.141Z" fill="#D4A929"/>
<path d="M1025.29 997.216C1025.29 1018.94 1010.15 1034.81 989.032 1040.06L1013.2 1085.23C1028.46 1112.94 1034.2 1117.33 1041.64 1119.29V1126H1007.46L964.74 1046.53H934.955V1104.27C934.955 1114.65 937.274 1116.72 953.754 1118.8V1126H888.812V1118.8C906.391 1116.72 908.588 1114.4 908.588 1103.66V972.069C908.588 961.083 906.391 958.764 888.812 956.933V949.73H956.073C1001.61 949.73 1025.29 967.797 1025.29 997.216ZM998.432 999.413C998.432 975.121 983.539 959.74 949.237 958.52L934.955 958.153V1038.35L952.655 1037.74C982.196 1036.89 998.432 1024.19 998.432 999.413ZM1054.58 1066.31C1054.58 1029.32 1077.53 1003.08 1111.71 1003.08C1143.7 1003.08 1161.76 1023.09 1161.76 1054.1C1161.76 1056.79 1161.64 1059.72 1161.4 1061.67H1079.12C1080.22 1093.65 1099.02 1114.77 1127.22 1114.77C1140.03 1114.77 1151.87 1110.13 1159.2 1102.93V1110.13C1150.9 1120.75 1134.66 1128.44 1114.28 1128.44C1080.1 1128.44 1054.58 1104.52 1054.58 1066.31ZM1111.47 1012.96C1093.28 1012.96 1080.71 1026.39 1079.24 1053.37L1138.57 1053.12C1138.57 1052.39 1138.57 1051.66 1138.57 1050.8C1138.57 1027.37 1129.05 1012.96 1111.47 1012.96ZM1243.79 1128.44C1210.59 1128.44 1184.96 1103.91 1184.96 1066.31C1184.96 1027.98 1212.79 1002.95 1246.72 1002.95C1274.19 1002.95 1287.25 1016.14 1287.25 1031.15C1287.25 1039.21 1281.27 1045.07 1273.82 1045.07C1266.13 1045.07 1260.39 1039.09 1260.39 1031.64C1260.39 1025.05 1264.91 1019.55 1270.77 1018.58C1265.77 1015.04 1258.93 1013.33 1250.26 1013.33C1227.07 1013.33 1210.35 1031.76 1210.35 1061.42C1210.35 1094.26 1229.63 1114.77 1256.85 1114.77C1269.55 1114.77 1281.15 1110.01 1288.59 1102.93V1110.25C1280.29 1120.75 1264.18 1128.44 1243.79 1128.44ZM1307.76 1066.31C1307.76 1029.32 1330.71 1003.08 1364.89 1003.08C1396.87 1003.08 1414.94 1023.09 1414.94 1054.1C1414.94 1056.79 1414.81 1059.72 1414.57 1061.67H1332.29C1333.39 1093.65 1352.19 1114.77 1380.39 1114.77C1393.21 1114.77 1405.05 1110.13 1412.37 1102.93V1110.13C1404.07 1120.75 1387.84 1128.44 1367.45 1128.44C1333.27 1128.44 1307.76 1104.52 1307.76 1066.31ZM1364.64 1012.96C1346.45 1012.96 1333.88 1026.39 1332.42 1053.37L1391.74 1053.12C1391.74 1052.39 1391.74 1051.66 1391.74 1050.8C1391.74 1027.37 1382.22 1012.96 1364.64 1012.96ZM1459.86 980.126C1451.43 980.126 1444.72 973.656 1444.72 965.355C1444.72 957.055 1451.43 950.707 1459.86 950.707C1468.28 950.707 1474.99 957.055 1474.99 965.355C1474.99 973.656 1468.28 980.126 1459.86 980.126ZM1474.38 1004.17V1107.45C1474.38 1115.14 1476.34 1117.09 1490.99 1118.8V1126H1433.61V1118.8C1448.26 1117.09 1450.34 1115.14 1450.34 1107.45V1027.49C1450.34 1020.9 1449.36 1019.43 1442.4 1017.48L1433.61 1015.28V1008.93L1474.38 1004.17ZM1632.83 1064.35C1632.83 1102.56 1607.32 1128.44 1575.21 1128.44C1561.18 1128.44 1549.58 1122.7 1542.99 1115.01V1162.25C1542.99 1171.53 1544.82 1173.24 1561.42 1174.95V1182.15H1502.34V1174.95C1517.23 1173.24 1518.94 1171.41 1518.94 1163.72V1027.49C1518.94 1020.9 1517.96 1019.43 1511 1017.48L1502.34 1015.28V1008.93L1542.5 1004.17V1024.93C1549.21 1011.86 1565.33 1002.95 1583.03 1002.95C1609.52 1002.95 1632.83 1025.66 1632.83 1064.35ZM1607.68 1066.92C1607.68 1035.91 1592.91 1016.62 1571.06 1016.62C1558.25 1016.62 1548.24 1021.87 1542.99 1031.4V1104.64C1547.02 1112.08 1557.27 1117.94 1569.96 1117.94C1592.18 1117.94 1607.68 1098.17 1607.68 1066.92ZM1666.64 1092.31V1016.38H1650.53V1011.38L1687.27 982.323H1690.69V1006.49L1726.7 1005.39V1016.38L1690.69 1015.53V1088.89C1690.69 1108.91 1699.85 1115.14 1712.18 1115.14C1718.52 1115.14 1724.63 1113.18 1728.66 1110.13V1117.33C1723.65 1123.44 1712.54 1128.44 1699.36 1128.44C1681.42 1128.44 1666.64 1118.55 1666.64 1092.31Z" fill="#2D2926"/>
<line x1="186.047" y1="888" x2="723.047" y2="889" stroke="#D4A929" stroke-width="50"/>
<line x1="151.047" y1="1109" x2="688.047" y2="1110" stroke="#D4A929" stroke-width="50"/>
<line x1="151.047" y1="960" x2="688.047" y2="961" stroke="#D4A929" stroke-width="50"/>
<line x1="221.047" y1="1032" x2="758.047" y2="1033" stroke="#D4A929" stroke-width="50"/>
</svg>
