<svg width="400" height="400" viewBox="0 0 400 400" fill="none" xmlns="http://www.w3.org/2000/svg">
<rect width="400" height="400" fill="black"/>
<g filter="url(#filter0_ii_1141_2008)">
<path d="M290.022 123.047C282.061 123.007 274.099 123.017 266.135 123.017H219.794L190.662 123.022H181.489C179.85 123.017 177.631 122.95 176.048 123.076C170.499 123.504 166.241 126.026 162.508 130.152C159.781 133.164 158.395 137.071 156.74 140.77L152.857 149.33L135.921 186.387L132.728 193.378C130.49 198.277 134.045 203.859 139.401 203.859H176.8C179.619 203.859 182.188 202.236 183.413 199.683C184.007 198.443 184.609 197.199 185.141 195.98C185.776 194.521 186.556 193.073 187.209 191.626L200.57 162.613L204.964 152.856C209.454 142.688 211.861 134.56 224.738 133.861C226.881 133.777 230.721 133.453 232.377 134.96C234.661 137.04 234.019 140.497 232.956 143.037C231.884 145.606 230.512 148.092 229.37 150.648C225.258 159.816 221.036 168.931 216.705 177.996L207.963 196.99C203.53 206.48 201.639 213.64 189.476 214.274C189.35 214.274 189.231 214.274 189.11 214.272L127.891 214.274C125.021 214.274 122.416 215.956 121.217 218.579L109.652 243.902C109.148 245.021 108.563 246.08 108.05 247.186C107.137 249.185 106.394 251.387 105.42 253.352C103.571 257.078 101.868 260.848 100.277 264.692C99.2188 267.246 97.8051 269.252 97.9995 272.121C98.1689 274.611 100.147 276.424 102.448 277.066C102.824 277.171 103.209 277.23 103.598 277.268C105.616 277.462 107.977 277.371 110.033 277.369L121.742 277.354L135.06 277.373C139.548 277.38 145.78 278.085 148.883 274.054C151.267 270.955 152.984 266.625 154.57 263.037L159.493 252.072C160.084 250.783 160.75 249.56 161.32 248.261L165.022 239.99C166.942 235.752 167.996 233.136 171.543 229.845C173.944 227.597 175.454 226.852 178.503 225.801C179.011 225.627 179.724 225.425 180.029 225.385C181.604 225.176 183.434 225.185 185.005 225.18H192.33H225.564L235.328 225.185C238.538 225.185 242.424 225.383 245.498 224.587C249.718 223.492 252.989 220.979 255.934 217.84C257.695 215.962 258.498 213.733 259.65 211.524C261.346 208.274 262.601 204.952 264.119 201.643L274.724 178.745C276.857 174.196 278.873 169.512 280.871 164.902C282.41 161.35 284.246 157.912 285.702 154.313C288.7 147.69 291.973 141.162 294.648 134.4C295.016 133.478 295.556 132.503 295.903 131.577C296.152 130.901 296.29 130.19 296.313 129.47C296.463 125.735 293.695 123.07 290.033 123.053L290.022 123.047Z" fill="white"/>
</g>
<path d="M181.486 124.291H190.662L219.794 124.287H278.079C281.942 124.289 285.804 124.296 289.666 124.314L289.677 124.321L290.026 124.323C293.02 124.337 295.164 126.453 295.044 129.419V129.43C295.025 130.012 294.914 130.587 294.714 131.132C294.561 131.539 294.362 131.969 294.136 132.447C293.918 132.909 293.671 133.424 293.469 133.93L293.468 133.933C290.807 140.658 287.572 147.103 284.545 153.789L284.534 153.812L284.524 153.837C283.812 155.599 283.004 157.328 282.171 159.08C281.343 160.822 280.486 162.595 279.705 164.396C277.705 169.013 275.698 173.678 273.574 178.206L273.572 178.211L262.967 201.109L262.965 201.113C261.393 204.54 260.207 207.711 258.524 210.937C257.273 213.334 256.61 215.262 255.008 216.971C252.239 219.922 249.269 222.2 245.542 223.259L245.18 223.357C243.026 223.915 240.437 223.95 237.87 223.933L235.328 223.915L225.564 223.911H185.001C183.653 223.915 182.012 223.906 180.501 224.053L179.862 224.126C179.419 224.184 178.603 224.424 178.09 224.601H178.089C176.546 225.132 175.317 225.611 174.154 226.269C172.984 226.93 171.926 227.747 170.68 228.914C166.922 232.4 165.778 235.244 163.865 239.466L163.863 239.472L160.161 247.742L160.158 247.75C159.886 248.37 159.588 248.978 159.276 249.606C158.969 250.228 158.644 250.877 158.339 251.542L158.334 251.552L153.411 262.518L153.408 262.524C151.885 265.972 150.347 269.821 148.295 272.714L147.877 273.279C146.622 274.91 144.684 275.661 142.326 275.969C139.929 276.281 137.422 276.107 135.062 276.104L121.744 276.085H121.74L110.031 276.1C107.901 276.102 105.656 276.19 103.72 276.004H103.721C103.376 275.97 103.07 275.921 102.79 275.843H102.789C100.906 275.317 99.4811 273.929 99.2822 272.203L99.2666 272.035C99.1861 270.847 99.4316 269.822 99.8506 268.751C100.064 268.206 100.317 267.661 100.597 267.066C100.803 266.629 101.024 266.163 101.238 265.675L101.45 265.178C103.031 261.358 104.722 257.614 106.557 253.916C107.068 252.885 107.514 251.803 107.936 250.757C108.362 249.698 108.762 248.685 109.202 247.72C109.448 247.19 109.712 246.669 109.988 246.12C110.261 245.578 110.545 245.01 110.81 244.422L122.372 219.106C123.365 216.932 125.522 215.543 127.891 215.543L189.088 215.541C189.222 215.543 189.352 215.543 189.476 215.543H189.509L189.542 215.542C195.921 215.21 199.787 213.134 202.594 209.767C203.962 208.125 205.045 206.216 206.054 204.165C207.046 202.146 208.035 199.835 209.113 197.527L209.116 197.521L217.851 178.543C222.186 169.469 226.413 160.344 230.528 151.167L230.529 151.166C231.088 149.915 231.704 148.68 232.329 147.407C232.794 146.46 233.263 145.495 233.701 144.514L234.128 143.527C234.695 142.171 235.182 140.5 235.191 138.833C235.201 137.144 234.713 135.37 233.232 134.021L233.231 134.021C232.058 132.953 230.289 132.646 228.825 132.547C227.303 132.444 225.708 132.553 224.688 132.593H224.669C217.911 132.96 213.743 135.31 210.723 139.004C207.809 142.567 205.996 147.376 203.803 152.343L199.417 162.082L186.056 191.096L186.052 191.104C185.736 191.804 185.388 192.507 185.028 193.239C184.673 193.963 184.307 194.714 183.977 195.473C183.457 196.666 182.866 197.886 182.268 199.135C181.252 201.25 179.127 202.59 176.801 202.59H139.401C134.983 202.59 132.024 197.975 133.883 193.905L137.076 186.914L154.012 149.857L154.014 149.854L157.896 141.295L157.899 141.289C159.615 137.453 160.898 133.822 163.449 131.004H163.45C167.014 127.064 170.987 124.74 176.145 124.343L176.148 124.342C177.662 124.221 179.78 124.287 181.486 124.291Z" stroke="white" stroke-opacity="0.4" stroke-width="2.53954"/>
<defs>
<filter id="filter0_ii_1141_2008" x="97.9814" y="119.614" width="198.337" height="161.197" filterUnits="userSpaceOnUse" color-interpolation-filters="sRGB">
<feFlood flood-opacity="0" result="BackgroundImageFix"/>
<feBlend mode="normal" in="SourceGraphic" in2="BackgroundImageFix" result="shape"/>
<feColorMatrix in="SourceAlpha" type="matrix" values="0 0 0 0 0 0 0 0 0 0 0 0 0 0 0 0 0 0 127 0" result="hardAlpha"/>
<feOffset dy="-3.38605"/>
<feGaussianBlur stdDeviation="3.59768"/>
<feComposite in2="hardAlpha" operator="arithmetic" k2="-1" k3="1"/>
<feColorMatrix type="matrix" values="0 0 0 0 1 0 0 0 0 1 0 0 0 0 1 0 0 0 1 0"/>
<feBlend mode="normal" in2="shape" result="effect1_innerShadow_1141_2008"/>
<feColorMatrix in="SourceAlpha" type="matrix" values="0 0 0 0 0 0 0 0 0 0 0 0 0 0 0 0 0 0 127 0" result="hardAlpha"/>
<feOffset dy="3.38605"/>
<feGaussianBlur stdDeviation="1.69302"/>
<feComposite in2="hardAlpha" operator="arithmetic" k2="-1" k3="1"/>
<feColorMatrix type="matrix" values="0 0 0 0 0.954364 0 0 0 0 0.954364 0 0 0 0 0.954364 0 0 0 1 0"/>
<feBlend mode="normal" in2="effect1_innerShadow_1141_2008" result="effect2_innerShadow_1141_2008"/>
</filter>
</defs>
</svg>
