<svg xmlns="http://www.w3.org/2000/svg" width="25" height="25" fill="none" viewBox="0 0 25 25"><g clip-path="url(#a)"><path fill="#fff" fill-rule="evenodd" d="M24.511 24.474H0V0h24.511zM8.351 6.79a.345.345 0 0 0-.327.236L6.97 10.183a.182.182 0 0 0 .173.239H10.2c.124 0 .212.121.173.239l-2.265 6.782a.18.18 0 0 0 .173.24h3.28c.149 0 .28-.096.327-.237l2.267-6.788a.345.345 0 0 1 .327-.236h3.066c.148 0 .28-.096.327-.236L18.93 7.03a.18.18 0 0 0-.173-.239z" clip-rule="evenodd"/></g><defs><clipPath id="a"><path fill="#fff" d="M0 0h25v25H0z"/></clipPath></defs></svg>