<svg xmlns="http://www.w3.org/2000/svg" width="1024" height="1024" fill="none" viewBox="0 0 1024 1024"><path fill="#3f79ff" d="M512 0c282.77 0 512 229.23 512 512s-229.231 512-512 512S0 794.77 0 512 229.23 0 512 0m55.697 94.262c-30.761-30.76-80.633-30.76-111.394 0L94.262 456.303c-30.76 30.761-30.76 80.633 0 111.394l362.041 362.041c30.761 30.759 80.633 30.76 111.394 0l362.041-362.041c30.76-30.761 30.759-80.633 0-111.394z"/><path fill="#3f79ff" d="M560.62 256.32q29.982 7.47 55.37 24.129 46.742 29.484 72.629 82.697l-83.415 48.18q-30.203-64.72-96.36-64.72-30.921 0-48.899 14.382-17.258 13.664-17.258 35.955 0 23.731 19.416 38.832 20.135 14.382 76.224 31.641 23.011 7.191 34.517 11.505 12.225 3.596 32.36 12.225 20.853 7.91 31.64 15.101 11.505 7.191 25.887 19.416t21.574 25.168q7.91 12.943 12.944 31.641 5.752 17.977 5.752 39.55 0 69.753-51.056 110.742-37.212 30.3-91.325 38.2V832h-93.483v-62.988q-40.898-7.781-72.63-28.338-51.056-33.798-71.91-91.325l84.854-49.619q29.484 76.944 115.776 76.944 41.707 0 61.123-15.101 19.415-15.1 19.416-38.112 0-26.607-23.731-40.989-23.73-15.101-84.853-32.36-33.798-10.067-57.529-20.134-23.012-10.068-46.742-26.607-23.01-17.259-35.235-43.146-12.225-25.889-12.225-60.405 0-68.314 48.18-108.584 33.261-27.879 75.506-36.795V192h93.483z"/></svg>
