<svg xmlns="http://www.w3.org/2000/svg" viewBox="0 0 32 32"><circle cx="16" cy="16" r="16" fill="#009393"/><g fill="#fff"><path d="M17.87 17.45v-.03c-.12.01-.72.05-2.07.05-1.06 0-1.81-.03-2.07-.05v.03c-4.09-.18-7.15-.9-7.15-1.76 0-.86 3.06-1.58 7.15-1.76v2.8c.27.02 1.04.06 2.09.06 1.26 0 1.92-.05 2.05-.06v-2.8c4.08.18 7.12.9 7.12 1.76 0 .86-3.04 1.58-7.12 1.76m0-3.81v-2.5h5.82V8h-15.4v3.14h5.82v2.5c-4.63.21-8.1 1.14-8.1 2.26 0 1.12 3.47 2.05 8.1 2.26v8.08h3.76v-8.08c4.61-.21 8.07-1.14 8.07-2.26 0-1.12-3.46-2.05-8.07-2.26"/></g></svg>
