<svg width="301" height="301" viewBox="0 0 301 301" fill="none" xmlns="http://www.w3.org/2000/svg">
<path d="M0 150.05C0 67.1808 67.1789 0.00195312 150.048 0.00195312V0.00195312C232.918 0.00195312 300.096 67.1808 300.096 150.05V150.05C300.096 232.919 232.918 300.098 150.048 300.098V300.098C67.1789 300.098 0 232.919 0 150.05V150.05Z" fill="#FC7A4A"/>
<path d="M191.312 173.807C191.312 151.925 178.182 144.423 151.924 141.297C133.168 138.796 129.417 133.795 129.417 125.041C129.417 116.287 135.669 110.662 148.173 110.662C159.426 110.662 165.679 114.413 168.804 123.791C169.43 125.667 171.306 126.917 173.181 126.917H183.184C185.685 126.917 187.56 125.041 187.56 122.541V121.916C185.059 108.161 173.806 97.5329 159.426 96.283V81.2781C159.426 78.7768 157.551 76.9012 154.425 76.2755H145.047C142.546 76.2755 140.67 78.1511 140.045 81.2781V95.6573C121.289 98.1586 109.411 110.662 109.411 126.293C109.411 146.924 121.914 155.051 148.173 158.178C165.679 161.303 171.306 165.055 171.306 175.058C171.306 185.062 162.552 191.939 150.674 191.939C134.418 191.939 128.791 185.06 126.916 175.682C126.291 173.183 124.416 171.931 122.54 171.931H111.911C109.411 171.931 107.535 173.807 107.535 176.308V176.934C110.035 192.563 120.039 203.817 140.67 206.944V221.948C140.67 224.448 142.546 226.324 145.672 226.949H155.05C157.551 226.949 159.426 225.074 160.052 221.948V206.944C178.808 203.817 191.312 190.687 191.312 173.807Z" fill="white"/>
<path d="M118.163 239.453C69.3975 221.948 44.389 167.556 62.5208 119.414C71.8988 93.156 92.5305 73.15 118.163 63.772C120.665 62.5221 121.914 60.6465 121.914 57.5195V48.7672C121.914 46.2659 120.665 44.3903 118.163 43.7661C117.538 43.7661 116.288 43.7661 115.662 44.3903C56.2683 63.1463 23.7574 126.293 42.5134 185.686C53.767 220.697 80.6511 247.581 115.662 258.835C118.163 260.085 120.665 258.835 121.289 256.333C121.914 255.709 121.914 255.083 121.914 253.834V245.08C121.914 243.204 120.039 240.704 118.163 239.453ZM184.435 44.3903C181.934 43.1404 179.432 44.3903 178.808 46.8916C178.182 47.5173 178.182 48.1415 178.182 49.3929V58.1452C178.182 60.6465 180.058 63.1463 181.934 64.3977C230.699 81.9024 255.708 136.295 237.576 184.436C228.198 210.695 207.566 230.701 181.934 240.079C179.432 241.329 178.182 243.204 178.182 246.331V255.083C178.182 257.585 179.432 259.46 181.934 260.085C182.559 260.085 183.809 260.085 184.435 259.46C243.829 240.704 276.34 177.558 257.584 118.165C246.33 82.5281 218.82 55.6439 184.435 44.3903Z" fill="white"/>
</svg>
