<svg xmlns="http://www.w3.org/2000/svg" width="96" height="96" fill="none" viewBox="0 0 96 96"><path fill="#0b53bf" d="M48 95c25.957 0 47-21.043 47-47S73.957 1 48 1 1 22.043 1 48s21.043 47 47 47"/><path fill="#fff" d="M56.46 13.778v6.051C68.535 23.472 77.377 34.693 77.377 48c0 13.308-8.842 24.529-20.915 28.171v6.052C71.853 78.462 83.25 64.567 83.25 48c0-16.568-11.398-30.462-26.79-34.222M18.625 48c0-13.307 8.842-24.528 20.915-28.17v-6.052C24.148 17.538 12.75 31.432 12.75 48c0 16.567 11.398 30.462 26.79 34.222V76.17C27.467 72.557 18.625 61.307 18.625 48"/><path fill="#fff" d="M60.632 54.55c0-12.014-18.83-7.079-18.83-13.717 0-2.38 1.91-3.907 5.552-3.907 4.348 0 5.846 2.115 6.316 4.964h5.993c-.535-5.347-3.604-8.724-8.725-9.73v-4.722h-5.875v4.554c-5.61.714-9.135 3.981-9.135 8.84 0 12.074 18.858 7.55 18.858 14.071 0 2.468-2.38 4.113-6.404 4.113-5.258 0-6.99-2.321-7.637-5.523h-5.846c.38 5.857 3.99 9.523 10.164 10.438v4.632h5.875v-4.57c6.025-.78 9.694-4.284 9.694-9.442"/></svg>
