<svg width="50" height="50" viewBox="0 0 50 50" fill="none" xmlns="http://www.w3.org/2000/svg">
<path d="M25 45C25.7075 45 26.4064 44.9633 27.095 44.8916L26.4697 38.9516C25.9867 39.0018 25.4965 39.0276 25.0002 39.0276C24.5061 39.0276 24.0179 39.0021 23.537 38.9522L22.9039 44.8915C23.5928 44.9632 24.2921 45 25 45Z" fill="#030712"/>
<path d="M17.9718 37.1424C18.8166 37.6325 19.7172 38.0369 20.6618 38.3438L18.8173 44.0261C17.4728 43.5894 16.1907 43.0143 14.9879 42.3174L17.9718 37.1424Z" fill="#030712"/>
<path d="M13.642 33.2331C14.2192 34.0281 14.8778 34.7602 15.6057 35.417L11.6042 39.8513C10.5678 38.9158 9.62979 37.8735 8.80758 36.7416L13.642 33.2331Z" fill="#030712"/>
<path d="M11.2716 27.8917C11.4756 28.8653 11.7805 29.8019 12.175 30.6898L6.71509 33.1156C6.15342 31.8521 5.71889 30.5195 5.42772 29.1341L11.2716 27.8917Z" fill="#030712"/>
<path d="M10.9733 24.9926H5C5 24.946 5.00016 24.8994 5.00048 24.8529C5.00773 23.846 5.08939 22.8568 5.24022 21.8906C6.24559 15.4618 10.3245 10.0379 15.9214 7.17448C18.6459 5.78411 21.7314 5 25 5C28.2783 5 31.3724 5.78876 34.1028 7.18685C39.6098 10.0137 43.6428 15.3213 44.7163 21.6241C44.9024 22.7192 44.9996 23.8446 45 24.9926H39.027C39.0226 17.2495 32.7443 10.9739 25.0002 10.9739C17.2561 10.9739 10.9778 17.2495 10.9733 24.9926Z" fill="#030712"/>
<path d="M37.8265 30.6872C38.2196 29.8018 38.5238 28.8682 38.7276 27.8976L44.5723 29.1336C44.2807 30.5213 43.8453 31.856 43.2823 33.1215L37.8265 30.6872Z" fill="#030712"/>
<path d="M34.3965 35.4154C35.1252 34.7575 35.7846 34.0242 36.3623 33.2278L41.1938 36.7396C40.3706 37.8731 39.4314 38.9168 38.3936 39.8533L34.3965 35.4154Z" fill="#030712"/>
<path d="M29.3423 38.3426C30.2859 38.0357 31.1855 37.6315 32.0294 37.1419L35.0132 42.3167C33.8125 43.0125 32.5329 43.5869 31.1909 44.0234L29.3423 38.3426Z" fill="#030712"/>
<path d="M28.7194 24.3156C29.4014 24.6073 29.9343 25.0561 30.3606 25.6396C30.7869 26.223 31 27.0085 31 27.9958C31 29.275 30.5524 30.3521 29.6998 31.2498C28.8472 32.1474 27.7176 32.7084 26.3535 32.9104V35H23.7105V32.8655C22.3037 32.6187 21.1528 32.0352 20.3002 31.0927C19.4476 30.1502 19 29.0281 19 27.7041L22.1332 27.749C22.1758 28.5344 22.4742 29.1628 23.0284 29.634C23.5826 30.1053 24.3073 30.3297 25.2238 30.3297C25.9698 30.3297 26.5879 30.1726 27.0568 29.836C27.5258 29.4994 27.7815 29.0281 27.7815 28.4222C27.7815 28.0183 27.6323 27.6817 27.3766 27.4348C27.1208 27.188 26.7371 26.986 26.2682 26.8514C25.7993 26.7167 25.0533 26.5372 24.0728 26.3128C23.0924 26.1333 22.2611 25.8864 21.6004 25.5722C20.9183 25.2581 20.3854 24.8093 19.9591 24.2034C19.5329 23.5975 19.341 22.7896 19.341 21.7797C19.341 20.5904 19.7247 19.5581 20.5346 18.7054C21.3446 17.8526 22.389 17.3365 23.7105 17.1121V15H26.3535V17.1569C27.6323 17.4262 28.6554 17.9872 29.4654 18.84C30.254 19.7152 30.659 20.7475 30.7016 21.9593H27.5684C27.4831 21.286 27.2274 20.7475 26.7584 20.3435C26.2895 19.9396 25.6714 19.7152 24.9041 19.7152C24.1794 19.7152 23.6252 19.8723 23.1989 20.1864C22.7726 20.5006 22.5595 20.9494 22.5595 21.5329C22.5595 21.9593 22.6874 22.2959 22.9432 22.5203C23.1989 22.7447 23.5613 22.9467 24.0302 23.0813C24.4991 23.216 25.2238 23.3955 26.2043 23.575C27.1847 23.777 28.0373 24.0238 28.7194 24.3156Z" fill="#030712"/>
</svg>
