<svg xmlns="http://www.w3.org/2000/svg" fill="none" viewBox="0 0 96 96"><g clip-path="url(#a)"><path fill="#0b53bf" d="M48 96c26.51 0 48-21.49 48-48S74.51 0 48 0 0 21.49 0 48s21.49 48 48 48"/><path fill="#fff" stroke="#0b53bf" stroke-miterlimit="10" stroke-width=".03" d="M58.2 59.43c-2.1.84-4.38 1.32-6.57 1.32-4.337 0-8.426-1.847-10.38-6.3h9.54l1.86-4.5H40.14q-.09-.93-.09-1.95c0-1.02.03-1.33.09-1.95h14.1l1.86-4.5H41.25c1.954-4.452 6.043-6.3 10.38-6.3 2.19 0 4.47.48 6.57 1.32l1.92-4.56c-2.58-1.35-5.49-2.01-8.4-2.01-7.024 0-14.123 3.927-16.693 11.55H30.42v4.5h3.684a22.5 22.5 0 0 0 0 3.9H30.42v4.5h4.607C37.597 62.075 44.697 66 51.72 66c2.91 0 5.82-.66 8.4-2.01z"/><path fill="#fff" stroke="#0b53bf" stroke-miterlimit="10" stroke-width=".03" d="M18 48c0-13.59 9.03-25.05 21.36-28.77v-6.18C23.64 16.89 12 31.08 12 48s11.64 31.11 27.36 34.95v-6.18C27.03 73.08 18 61.59 18 48Zm38.64-34.95v6.18C68.97 22.95 78 34.41 78 48s-9.03 25.05-21.36 28.77v6.18C72.36 79.11 84 64.92 84 48S72.36 16.89 56.64 13.05Z"/></g><defs><clipPath id="a"><path fill="#fff" d="M0 0h96v96H0z"/></clipPath></defs></svg>
