<svg version="1.1" id="Layer_1" xmlns="http://www.w3.org/2000/svg" xmlns:xlink="http://www.w3.org/1999/xlink" x="0px" y="0px"
	 width="100%" viewBox="0 0 795 667" enable-background="new 0 0 795 667" xml:space="preserve">
<path fill="#010101" opacity="1.000000" stroke="none" 
	d="
M526.000000,668.000000 
	C350.666656,668.000000 175.833328,668.000000 1.000000,668.000000 
	C1.000000,445.666656 1.000000,223.333328 1.000000,1.000000 
	C266.000000,1.000000 531.000000,1.000000 796.000000,1.000000 
	C796.000000,223.333328 796.000000,445.666656 796.000000,668.000000 
	C706.166687,668.000000 616.333313,668.000000 526.000000,668.000000 
M154.845566,192.103912 
	C153.956818,195.095993 153.068069,198.088074 152.054214,201.501343 
	C165.234207,205.174866 178.113693,208.764633 191.446136,212.480652 
	C195.495514,198.754196 199.412827,185.475342 203.455780,171.770660 
	C190.047943,168.004456 177.090591,164.364792 164.076553,160.709198 
	C162.789352,164.682556 161.717590,167.990860 159.683167,171.138306 
	C158.709366,171.072678 157.735550,171.007050 156.821365,170.156464 
	C157.733612,166.703232 158.645859,163.250000 159.609680,159.601608 
	C146.198624,155.811020 133.324265,152.172119 120.081139,148.429001 
	C116.037018,162.231155 112.143814,175.518265 108.208862,188.947830 
	C114.117653,190.771423 119.315674,192.375671 123.789581,194.786316 
	C123.765533,195.850418 123.741478,196.914536 122.884857,198.012100 
	C117.656631,196.549194 112.428413,195.086304 106.910774,193.542419 
	C102.925110,207.175552 99.085236,220.310013 95.080750,234.007523 
	C108.355614,237.840408 121.346748,241.591385 134.759460,245.464066 
	C138.801453,231.669998 142.681915,218.427170 146.608734,205.026169 
	C139.605774,202.844284 133.307037,200.881805 126.997925,198.055161 
	C126.970840,196.902161 126.943756,195.749146 127.731544,194.701294 
	C134.407455,196.521072 141.083374,198.340851 147.901108,200.199280 
	C148.974167,196.880066 149.929703,193.924316 151.534760,191.188797 
	C152.653198,191.219284 153.771622,191.249771 154.845566,192.103912 
M523.339050,454.556915 
	C523.220581,455.730103 523.102173,456.903320 522.320007,458.344452 
	C518.210266,471.978485 514.100525,485.612488 509.927155,499.457642 
	C523.565002,503.326569 536.728455,507.060913 550.176758,510.876068 
	C554.299438,496.729034 558.233215,483.230286 562.243652,469.468414 
	C559.482422,468.657471 557.171997,467.978912 554.997009,466.481262 
	C555.904602,465.490692 556.812195,464.500122 558.454041,463.589142 
	C560.680481,465.655273 563.168518,466.009399 564.135559,462.807892 
	C567.999207,450.016327 571.520935,437.121490 575.276489,423.886871 
	C561.702637,420.073639 548.674744,416.413757 535.303467,412.657410 
	C532.410095,422.492828 529.593384,431.827576 526.936584,441.207672 
	C525.736877,445.443420 524.855774,449.769348 523.339050,454.556915 
M350.130188,409.325806 
	C338.714539,406.060303 327.298889,402.794800 315.843933,399.518036 
	C311.764191,413.702026 307.883026,427.195587 303.860443,441.180786 
	C317.309875,444.983490 330.472107,448.705017 343.880280,452.496094 
	C347.943939,438.288940 351.803009,424.796906 355.737915,411.039856 
	C353.684875,410.436707 352.268829,410.020721 350.130188,409.325806 
M237.213699,389.663544 
	C234.375687,399.501434 231.537689,409.339355 228.642700,419.374756 
	C242.320541,423.264954 255.380280,426.979370 268.832123,430.805298 
	C272.795227,417.070496 276.727905,403.441284 280.781067,389.394440 
	C267.027863,385.616882 253.977783,382.032471 240.711868,378.388794 
	C239.512405,382.265900 238.486816,385.581024 237.213699,389.663544 
M420.041901,188.657410 
	C420.406158,187.247665 420.770416,185.837921 421.240417,184.018906 
	C407.885162,180.191025 394.771759,176.432465 381.513031,172.632248 
	C377.477325,186.687119 373.643158,200.040161 369.714050,213.723877 
	C383.225220,217.605698 396.360748,221.379578 409.730927,225.220886 
	C413.183411,213.032669 416.523560,201.240936 420.041901,188.657410 
M422.398224,359.859467 
	C421.082489,364.776764 419.766754,369.694061 418.346008,375.003754 
	C431.762909,378.825043 444.776154,382.531342 458.000305,386.297699 
	C462.034088,372.281403 465.902618,358.839294 469.868988,345.057312 
	C456.075470,341.155701 443.188507,337.510559 430.003143,333.780975 
	C427.467224,342.562805 425.079132,350.832855 422.398224,359.859467 
M331.271362,158.214066 
	C323.015961,155.996933 314.760529,153.779816 306.336456,151.517395 
	C302.309967,165.575897 298.482056,178.940948 294.522461,192.765823 
	C307.958710,196.567368 320.992340,200.255005 334.451691,204.063095 
	C338.381073,190.290710 342.228790,176.804657 346.210449,162.849091 
	C341.176971,161.309952 336.599976,159.910400 331.271362,158.214066 
M638.882874,393.034454 
	C637.746887,393.646759 635.953186,394.000305 635.592346,394.917542 
	C634.261047,398.301239 633.368164,401.861359 632.375366,405.373474 
	C629.726196,414.744171 627.110840,424.124390 624.413269,433.746063 
	C637.855530,437.580444 650.717285,441.249237 663.932495,445.018860 
	C667.966858,431.145782 671.925964,417.531616 676.000610,403.520264 
	C663.536682,399.978851 651.581299,396.581970 638.882874,393.034454 
M608.664734,236.966797 
	C601.879883,234.970856 595.095032,232.974915 588.084961,230.912704 
	C583.963928,244.914001 580.001038,258.378265 575.913330,272.266296 
	C589.483948,276.132416 602.512756,279.844238 615.887817,283.654663 
	C619.903992,269.558014 623.748291,256.064453 627.682007,242.257401 
	C621.222595,240.417740 615.345032,238.743790 608.664734,236.966797 
M132.442108,146.983185 
	C141.952560,149.667145 151.463028,152.351105 161.177231,155.092575 
	C165.249954,141.063705 169.162476,127.586670 173.154831,113.834625 
	C159.638016,109.980659 146.643814,106.275703 133.466064,102.518417 
	C129.327438,116.738022 125.411171,130.193619 121.430656,143.869949 
	C125.296150,144.973083 128.474487,145.880127 132.442108,146.983185 
M98.990379,368.497620 
	C101.789658,358.990082 104.588943,349.482544 107.453438,339.753510 
	C93.802818,335.977509 80.745834,332.365692 67.423355,328.680420 
	C63.329056,342.552094 59.390766,355.895172 55.335529,369.634491 
	C68.840355,373.445526 81.866623,377.121490 95.064812,380.845978 
	C96.354156,376.811096 97.560112,373.037170 98.990379,368.497620 
M424.836243,229.564774 
	C434.205933,232.246887 443.575623,234.929001 453.288879,237.709457 
	C457.341370,223.660446 461.232422,210.170990 465.234344,196.297226 
	C451.981079,192.509155 439.112366,188.831009 425.765839,185.016281 
	C421.771881,198.910843 417.859894,212.520203 413.904358,226.281158 
	C417.741730,227.408340 420.913727,228.340088 424.836243,229.564774 
M494.070190,249.224152 
	C496.069977,250.253571 497.484131,250.180878 497.979584,247.516327 
	C498.342163,245.566208 499.027893,243.675797 499.576172,241.760651 
	C502.707733,230.822586 505.841248,219.885117 509.031647,208.746582 
	C495.592377,204.940765 482.692749,201.287766 469.378876,197.517456 
	C465.434967,211.328522 461.583710,224.815155 457.607574,238.739075 
	C469.771118,242.245682 481.536896,245.637604 494.070190,249.224152 
M359.390472,309.025879 
	C367.282471,311.292236 375.174469,313.558563 383.302521,315.892670 
	C387.321533,301.986603 391.173218,288.659485 395.154114,274.885376 
	C381.769958,271.164734 368.738220,267.542053 355.291687,263.804077 
	C351.217102,277.537140 347.267548,290.848694 343.197754,304.565613 
	C348.747192,306.105469 353.670380,307.471558 359.390472,309.025879 
M621.046997,282.068115 
	C620.157410,284.216949 620.742920,285.293182 623.137695,285.930328 
	C635.282715,289.161469 647.382446,292.562897 659.903931,296.016602 
	C663.825317,282.266815 667.668335,268.791870 671.590881,255.038055 
	C658.143921,251.126038 645.290649,247.386749 632.046997,243.533875 
	C628.327454,256.494293 624.763977,268.910950 621.046997,282.068115 
M555.715210,364.791504 
	C566.891968,367.889252 578.068665,370.986969 589.696472,374.209686 
	C593.627014,360.559937 597.502991,347.099731 601.435181,333.444122 
	C587.766968,329.633667 574.735107,326.000610 561.315369,322.259430 
	C557.330505,336.131195 553.504822,349.449005 549.630310,362.936707 
	C551.794250,363.571960 553.374878,364.035950 555.715210,364.791504 
M705.205261,407.201660 
	C710.390686,408.690033 715.576172,410.178436 720.834351,411.687714 
	C724.930298,397.664886 728.869019,384.180389 732.877930,370.455475 
	C719.268066,366.703461 706.352295,363.142792 692.993347,359.459991 
	C688.971802,373.319427 685.076172,386.744629 681.120850,400.375671 
	C689.419678,402.750214 696.916687,404.895325 705.205261,407.201660 
M731.571594,320.979889 
	C723.278809,318.654602 714.986023,316.329285 706.272278,313.885925 
	C702.214783,327.724915 698.270386,341.178070 694.244751,354.908295 
	C707.943787,358.663330 721.007507,362.244232 734.287109,365.884308 
	C738.278381,352.170746 742.164062,338.820160 746.116943,325.238770 
	C741.245056,323.796387 736.803467,322.481384 731.571594,320.979889 
M710.848145,283.368408 
	C712.256104,278.116669 713.664062,272.864929 715.154663,267.304993 
	C701.931702,263.512634 689.076050,259.825592 675.838623,256.029053 
	C671.782349,270.040955 667.874451,283.540100 663.889954,297.303955 
	C677.218140,301.086182 690.096985,304.740906 703.248718,308.473053 
	C705.805969,299.983459 708.193298,292.057861 710.848145,283.368408 
M382.570679,333.965302 
	C379.793640,343.451385 377.016602,352.937469 374.222870,362.480591 
	C387.911133,366.348328 400.787476,369.986633 414.028137,373.727875 
	C418.010651,359.754272 421.848938,346.286743 425.736359,332.646790 
	C412.255188,328.850525 399.495667,325.257477 386.286255,321.537720 
	C385.065582,325.639587 383.941071,329.418274 382.570679,333.965302 
M475.154388,339.606354 
	C475.985687,340.516266 476.654938,341.911835 477.676178,342.252563 
	C482.243317,343.776520 486.901611,345.032654 491.544098,346.324005 
	C499.142120,348.437439 506.753448,350.503082 514.577515,352.648773 
	C518.607483,338.733093 522.428223,325.539856 526.423767,311.743195 
	C512.948853,307.998718 499.885071,304.368500 486.613342,300.680481 
	C482.772858,313.690765 479.064362,326.254028 475.154388,339.606354 
M357.108246,257.513184 
	C357.725403,258.307800 358.199890,259.598114 358.981079,259.822937 
	C371.408356,263.399506 383.874908,266.839661 396.486877,270.354004 
	C400.437439,256.762299 404.312408,243.430679 408.314758,229.660767 
	C394.816132,225.872284 381.779785,222.213562 368.305450,218.431915 
	C364.533539,231.548965 360.913574,244.137695 357.108246,257.513184 
M577.796082,375.836945 
	C567.983459,373.046692 558.170837,370.256470 548.139038,367.403900 
	C544.108704,381.458771 540.329529,394.637756 536.493591,408.014557 
	C550.156677,411.921326 563.181885,415.645691 576.533875,419.463470 
	C580.468994,405.579803 584.245056,392.257172 588.085083,378.709229 
	C584.619141,377.722900 581.604187,376.864929 577.796082,375.836945 
M324.735962,369.104736 
	C322.253754,377.667542 319.771545,386.230347 317.167450,395.213593 
	C330.868988,399.006500 343.902313,402.614441 357.208466,406.297913 
	C361.189331,392.408173 364.971771,379.210754 368.890808,365.536774 
	C355.471710,361.784729 342.433838,358.139282 329.100098,354.411102 
	C327.577362,359.449707 326.238220,363.880707 324.735962,369.104736 
M581.533264,417.927277 
	C580.374146,420.110199 581.178711,421.230560 583.438721,421.871765 
	C595.532959,425.302979 607.608337,428.800598 620.132263,432.402435 
	C624.069275,418.531128 627.897827,405.042084 631.877380,391.020752 
	C618.714111,387.327057 605.839783,383.714417 592.481506,379.966003 
	C588.844360,392.633423 585.322632,404.898895 581.533264,417.927277 
M292.062378,350.506805 
	C292.522705,348.619019 292.983063,346.731201 293.528198,344.495636 
	C280.062469,340.582855 266.978851,336.781067 253.801804,332.952148 
	C249.772766,346.965302 245.981476,360.151489 242.076645,373.732574 
	C255.494751,377.489960 268.689056,381.184692 282.159637,384.956787 
	C285.446899,373.565857 288.657288,362.441315 292.062378,350.506805 
M610.621643,302.128815 
	C611.849854,297.664307 613.078003,293.199799 614.431641,288.279175 
	C601.081299,284.447906 587.939087,280.676361 574.629089,276.856659 
	C570.583374,290.642120 566.707520,303.848907 562.676208,317.585327 
	C576.137390,321.391754 589.325012,325.120789 602.781677,328.925934 
	C605.337341,320.092804 607.827881,311.484985 610.621643,302.128815 
M122.604858,288.197113 
	C126.241028,275.530792 129.877197,262.864471 133.588669,249.935760 
	C119.773315,245.921326 106.803467,242.152573 93.770515,238.365479 
	C89.729240,252.479965 85.919792,265.784729 82.061684,279.259460 
	C94.705017,282.838806 106.824402,286.308502 118.982033,289.638580 
	C119.959229,289.906219 121.199631,289.212982 122.604858,288.197113 
M292.645386,338.974701 
	C293.770966,338.470703 295.674896,338.199646 295.905853,337.427917 
	C299.651123,324.913025 303.184204,312.334595 306.901184,299.293701 
	C293.452362,295.459351 280.327454,291.717316 266.984192,287.913055 
	C263.052216,301.630341 259.239960,314.930023 255.319138,328.608398 
	C267.891357,332.129913 279.850342,335.479645 292.645386,338.974701 
M298.440094,242.967331 
	C305.928314,245.066422 313.416565,247.165497 321.388702,249.400223 
	C325.350525,235.606842 329.178192,222.280594 333.114624,208.575638 
	C319.567047,204.807053 306.534027,201.181610 293.410980,197.531128 
	C289.380219,211.572861 285.556519,224.893356 281.673981,238.418793 
	C287.429718,239.995972 292.537811,241.395706 298.440094,242.967331 
M77.555977,293.981598 
	C74.620239,303.951447 71.684502,313.921295 68.655586,324.207611 
	C82.407936,328.030121 95.569717,331.688477 108.812317,335.369293 
	C112.794037,321.620148 116.606041,308.457062 120.559128,294.806763 
	C107.007874,291.068512 93.986992,287.476593 80.690323,283.808594 
	C79.638756,287.225311 78.717812,290.217651 77.555977,293.981598 
M256.974854,231.395706 
	C263.649017,233.327225 270.323151,235.258728 277.423462,237.313568 
	C281.476501,223.531723 285.433350,210.076981 289.495789,196.263260 
	C276.155090,192.420929 263.419434,188.752884 250.201797,184.945999 
	C246.181717,198.726181 242.215271,212.322540 238.181274,226.150421 
	C244.683502,227.954971 250.439606,229.552460 256.974854,231.395706 
M528.580200,303.998322 
	C532.136475,291.589050 535.692810,279.179779 539.347168,266.428589 
	C525.898376,262.656006 512.937134,259.020172 499.732086,255.315979 
	C495.660645,269.413147 491.853699,282.594635 487.939514,296.147369 
	C500.557861,299.624359 512.845703,303.058777 525.184082,306.301117 
	C526.007141,306.517395 527.213074,305.276978 528.580200,303.998322 
M341.039307,312.346039 
	C337.471405,324.719086 333.903534,337.092133 330.268127,349.699432 
	C343.960297,353.580078 356.951538,357.262054 370.137604,360.999268 
	C374.139221,347.065704 377.917419,333.910095 381.798096,320.397797 
	C369.125305,316.839996 357.169342,313.417267 345.153412,310.220001 
	C344.043365,309.924652 342.551453,311.064270 341.039307,312.346039 
M319.576294,255.503143 
	C319.138824,254.900665 318.812744,253.916733 318.247559,253.751785 
	C305.707153,250.091354 293.140411,246.521393 280.291748,242.852295 
	C276.352112,256.761780 272.581329,270.075043 268.723877,283.694397 
	C282.260132,287.439850 295.147400,291.005737 308.348846,294.658569 
	C312.116730,281.388062 315.693115,268.792206 319.576294,255.503143 
M210.983994,306.517883 
	C214.023026,296.023041 217.062057,285.528168 220.228760,274.592468 
	C206.948502,270.901184 194.106934,267.331848 181.120071,263.722137 
	C177.037628,277.656677 173.131439,290.989624 169.154373,304.564545 
	C182.489136,308.384827 195.318756,312.060394 208.272552,315.771545 
	C209.177826,312.688385 209.969955,309.990601 210.983994,306.517883 
M145.718506,224.152847 
	C143.383896,231.712860 141.049286,239.272858 138.687897,246.919586 
	C151.762741,250.565170 164.854324,254.215408 178.229065,257.944611 
	C182.217896,244.120178 186.057907,230.811493 189.993896,217.170227 
	C176.721725,213.398529 163.918839,209.760193 150.829102,206.040329 
	C149.057114,212.244934 147.469635,217.803497 145.718506,224.152847 
M249.392181,234.171158 
	C245.423950,233.084564 241.455719,231.997986 237.084244,230.800980 
	C233.138565,244.382523 229.274414,257.683472 225.290756,271.395813 
	C238.580200,275.194916 251.256790,278.818848 264.224609,282.526001 
	C268.313965,268.638702 272.222504,255.365463 276.238770,241.726273 
	C267.089233,239.165741 258.627014,236.797546 249.392181,234.171158 
M221.570068,225.991852 
	C212.546661,223.474106 203.523239,220.956345 194.317780,218.387787 
	C190.218307,232.368896 186.324844,245.647461 182.363312,259.158112 
	C195.682556,262.867737 208.244812,266.366547 221.138702,269.957733 
	C225.107407,256.407745 228.999832,243.118271 233.010590,229.424698 
	C229.258362,228.274384 225.809982,227.217224 221.570068,225.991852 
M137.418182,244.481857 
	C137.418182,244.481857 137.522537,244.420242 137.418182,244.481857 
z"/>
<path fill="#FAFAFA" opacity="1.000000" stroke="none" 
	d="
M350.491486,409.465271 
	C352.268829,410.020721 353.684875,410.436707 355.737915,411.039856 
	C351.803009,424.796906 347.943939,438.288940 343.880280,452.496094 
	C330.472107,448.705017 317.309875,444.983490 303.860443,441.180786 
	C307.883026,427.195587 311.764191,413.702026 315.843933,399.518036 
	C327.298889,402.794800 338.714539,406.060303 350.491486,409.465271 
z"/>
<path fill="#FAFAFA" opacity="1.000000" stroke="none" 
	d="
M554.861511,467.300354 
	C557.171997,467.978912 559.482422,468.657471 562.243652,469.468414 
	C558.233215,483.230286 554.299438,496.729034 550.176758,510.876068 
	C536.728455,507.060913 523.565002,503.326569 509.927155,499.457642 
	C514.100525,485.612488 518.210266,471.978485 522.932800,458.441833 
	C533.984253,461.459625 544.422852,464.380005 554.861511,467.300354 
z"/>
<path fill="#FAFAFA" opacity="1.000000" stroke="none" 
	d="
M237.337463,389.279846 
	C238.486816,385.581024 239.512405,382.265900 240.711868,378.388794 
	C253.977783,382.032471 267.027863,385.616882 280.781067,389.394440 
	C276.727905,403.441284 272.795227,417.070496 268.832123,430.805298 
	C255.380280,426.979370 242.320541,423.264954 228.642700,419.374756 
	C231.537689,409.339355 234.375687,399.501434 237.337463,389.279846 
z"/>
<path fill="#FAFAFA" opacity="1.000000" stroke="none" 
	d="
M419.952820,189.053299 
	C416.523560,201.240936 413.183411,213.032669 409.730927,225.220886 
	C396.360748,221.379578 383.225220,217.605698 369.714050,213.723877 
	C373.643158,200.040161 377.477325,186.687119 381.513031,172.632248 
	C394.771759,176.432465 407.885162,180.191025 421.240417,184.018906 
	C420.770416,185.837921 420.406158,187.247665 419.952820,189.053299 
z"/>
<path fill="#FBFBFB" opacity="1.000000" stroke="none" 
	d="
M422.544617,359.481201 
	C425.079132,350.832855 427.467224,342.562805 430.003143,333.780975 
	C443.188507,337.510559 456.075470,341.155701 469.868988,345.057312 
	C465.902618,358.839294 462.034088,372.281403 458.000305,386.297699 
	C444.776154,382.531342 431.762909,378.825043 418.346008,375.003754 
	C419.766754,369.694061 421.082489,364.776764 422.544617,359.481201 
z"/>
<path fill="#FAFAFA" opacity="1.000000" stroke="none" 
	d="
M331.647156,158.362457 
	C336.599976,159.910400 341.176971,161.309952 346.210449,162.849091 
	C342.228790,176.804657 338.381073,190.290710 334.451691,204.063095 
	C320.992340,200.255005 307.958710,196.567368 294.522461,192.765823 
	C298.482056,178.940948 302.309967,165.575897 306.336456,151.517395 
	C314.760529,153.779816 323.015961,155.996933 331.647156,158.362457 
z"/>
<path fill="#FBFBFB" opacity="1.000000" stroke="none" 
	d="
M639.254395,393.109772 
	C651.581299,396.581970 663.536682,399.978851 676.000610,403.520264 
	C671.925964,417.531616 667.966858,431.145782 663.932495,445.018860 
	C650.717285,441.249237 637.855530,437.580444 624.413269,433.746063 
	C627.110840,424.124390 629.726196,414.744171 632.375366,405.373474 
	C633.368164,401.861359 634.261047,398.301239 635.592346,394.917542 
	C635.953186,394.000305 637.746887,393.646759 639.254395,393.109772 
z"/>
<path fill="#FBFBFB" opacity="1.000000" stroke="none" 
	d="
M609.066162,237.018311 
	C615.345032,238.743790 621.222595,240.417740 627.682007,242.257401 
	C623.748291,256.064453 619.903992,269.558014 615.887817,283.654663 
	C602.512756,279.844238 589.483948,276.132416 575.913330,272.266296 
	C580.001038,258.378265 583.963928,244.914001 588.084961,230.912704 
	C595.095032,232.974915 601.879883,234.970856 609.066162,237.018311 
z"/>
<path fill="#FBFBFB" opacity="1.000000" stroke="none" 
	d="
M132.047470,146.885162 
	C128.474487,145.880127 125.296150,144.973083 121.430656,143.869949 
	C125.411171,130.193619 129.327438,116.738022 133.466064,102.518417 
	C146.643814,106.275703 159.638016,109.980659 173.154831,113.834625 
	C169.162476,127.586670 165.249954,141.063705 161.177231,155.092575 
	C151.463028,152.351105 141.952560,149.667145 132.047470,146.885162 
z"/>
<path fill="#FBFBFB" opacity="1.000000" stroke="none" 
	d="
M523.830078,454.054382 
	C524.855774,449.769348 525.736877,445.443420 526.936584,441.207672 
	C529.593384,431.827576 532.410095,422.492828 535.303467,412.657410 
	C548.674744,416.413757 561.702637,420.073639 575.276489,423.886871 
	C571.520935,437.121490 567.999207,450.016327 564.135559,462.807892 
	C563.168518,466.009399 560.680481,465.655273 557.762207,463.342682 
	C545.990234,460.082275 534.910156,457.068329 523.830078,454.054382 
z"/>
<path fill="#FBFBFB" opacity="1.000000" stroke="none" 
	d="
M98.878220,368.880432 
	C97.560112,373.037170 96.354156,376.811096 95.064812,380.845978 
	C81.866623,377.121490 68.840355,373.445526 55.335529,369.634491 
	C59.390766,355.895172 63.329056,342.552094 67.423355,328.680420 
	C80.745834,332.365692 93.802818,335.977509 107.453438,339.753510 
	C104.588943,349.482544 101.789658,358.990082 98.878220,368.880432 
z"/>
<path fill="#FAFAFA" opacity="1.000000" stroke="none" 
	d="
M424.460999,229.418304 
	C420.913727,228.340088 417.741730,227.408340 413.904358,226.281158 
	C417.859894,212.520203 421.771881,198.910843 425.765839,185.016281 
	C439.112366,188.831009 451.981079,192.509155 465.234344,196.297226 
	C461.232422,210.170990 457.341370,223.660446 453.288879,237.709457 
	C443.575623,234.929001 434.205933,232.246887 424.460999,229.418304 
z"/>
<path fill="#FBFBFB" opacity="1.000000" stroke="none" 
	d="
M493.686432,249.126831 
	C481.536896,245.637604 469.771118,242.245682 457.607574,238.739075 
	C461.583710,224.815155 465.434967,211.328522 469.378876,197.517456 
	C482.692749,201.287766 495.592377,204.940765 509.031647,208.746582 
	C505.841248,219.885117 502.707733,230.822586 499.576172,241.760651 
	C499.027893,243.675797 498.342163,245.566208 497.979584,247.516327 
	C497.484131,250.180878 496.069977,250.253571 493.686432,249.126831 
z"/>
<path fill="#FBFBFB" opacity="1.000000" stroke="none" 
	d="
M358.992004,308.931763 
	C353.670380,307.471558 348.747192,306.105469 343.197754,304.565613 
	C347.267548,290.848694 351.217102,277.537140 355.291687,263.804077 
	C368.738220,267.542053 381.769958,271.164734 395.154114,274.885376 
	C391.173218,288.659485 387.321533,301.986603 383.302521,315.892670 
	C375.174469,313.558563 367.282471,311.292236 358.992004,308.931763 
z"/>
<path fill="#FBFBFA" opacity="1.000000" stroke="none" 
	d="
M621.123779,281.697876 
	C624.763977,268.910950 628.327454,256.494293 632.046997,243.533875 
	C645.290649,247.386749 658.143921,251.126038 671.590881,255.038055 
	C667.668335,268.791870 663.825317,282.266815 659.903931,296.016602 
	C647.382446,292.562897 635.282715,289.161469 623.137695,285.930328 
	C620.742920,285.293182 620.157410,284.216949 621.123779,281.697876 
z"/>
<path fill="#FBFBFB" opacity="1.000000" stroke="none" 
	d="
M555.335327,364.645752 
	C553.374878,364.035950 551.794250,363.571960 549.630310,362.936707 
	C553.504822,349.449005 557.330505,336.131195 561.315369,322.259430 
	C574.735107,326.000610 587.766968,329.633667 601.435181,333.444122 
	C597.502991,347.099731 593.627014,360.559937 589.696472,374.209686 
	C578.068665,370.986969 566.891968,367.889252 555.335327,364.645752 
z"/>
<path fill="#FBFBFB" opacity="1.000000" stroke="none" 
	d="
M704.809448,407.121033 
	C696.916687,404.895325 689.419678,402.750214 681.120850,400.375671 
	C685.076172,386.744629 688.971802,373.319427 692.993347,359.459991 
	C706.352295,363.142792 719.268066,366.703461 732.877930,370.455475 
	C728.869019,384.180389 724.930298,397.664886 720.834351,411.687714 
	C715.576172,410.178436 710.390686,408.690033 704.809448,407.121033 
z"/>
<path fill="#FBFBFB" opacity="1.000000" stroke="none" 
	d="
M731.966736,321.073120 
	C736.803467,322.481384 741.245056,323.796387 746.116943,325.238770 
	C742.164062,338.820160 738.278381,352.170746 734.287109,365.884308 
	C721.007507,362.244232 707.943787,358.663330 694.244751,354.908295 
	C698.270386,341.178070 702.214783,327.724915 706.272278,313.885925 
	C714.986023,316.329285 723.278809,318.654602 731.966736,321.073120 
z"/>
<path fill="#FBFBFA" opacity="1.000000" stroke="none" 
	d="
M710.714417,283.750336 
	C708.193298,292.057861 705.805969,299.983459 703.248718,308.473053 
	C690.096985,304.740906 677.218140,301.086182 663.889954,297.303955 
	C667.874451,283.540100 671.782349,270.040955 675.838623,256.029053 
	C689.076050,259.825592 701.931702,263.512634 715.154663,267.304993 
	C713.664062,272.864929 712.256104,278.116669 710.714417,283.750336 
z"/>
<path fill="#FBFBFB" opacity="1.000000" stroke="none" 
	d="
M382.693604,333.581116 
	C383.941071,329.418274 385.065582,325.639587 386.286255,321.537720 
	C399.495667,325.257477 412.255188,328.850525 425.736359,332.646790 
	C421.848938,346.286743 418.010651,359.754272 414.028137,373.727875 
	C400.787476,369.986633 387.911133,366.348328 374.222870,362.480591 
	C377.016602,352.937469 379.793640,343.451385 382.693604,333.581116 
z"/>
<path fill="#FBFBFB" opacity="1.000000" stroke="none" 
	d="
M475.255127,339.211823 
	C479.064362,326.254028 482.772858,313.690765 486.613342,300.680481 
	C499.885071,304.368500 512.948853,307.998718 526.423767,311.743195 
	C522.428223,325.539856 518.607483,338.733093 514.577515,352.648773 
	C506.753448,350.503082 499.142120,348.437439 491.544098,346.324005 
	C486.901611,345.032654 482.243317,343.776520 477.676178,342.252563 
	C476.654938,341.911835 475.985687,340.516266 475.255127,339.211823 
z"/>
<path fill="#FBFBFB" opacity="1.000000" stroke="none" 
	d="
M357.200928,257.119812 
	C360.913574,244.137695 364.533539,231.548965 368.305450,218.431915 
	C381.779785,222.213562 394.816132,225.872284 408.314758,229.660767 
	C404.312408,243.430679 400.437439,256.762299 396.486877,270.354004 
	C383.874908,266.839661 371.408356,263.399506 358.981079,259.822937 
	C358.199890,259.598114 357.725403,258.307800 357.200928,257.119812 
z"/>
<path fill="#FBFBFB" opacity="1.000000" stroke="none" 
	d="
M578.192627,375.921967 
	C581.604187,376.864929 584.619141,377.722900 588.085083,378.709229 
	C584.245056,392.257172 580.468994,405.579803 576.533875,419.463470 
	C563.181885,415.645691 550.156677,411.921326 536.493591,408.014557 
	C540.329529,394.637756 544.108704,381.458771 548.139038,367.403900 
	C558.170837,370.256470 567.983459,373.046692 578.192627,375.921967 
z"/>
<path fill="#FAFAFA" opacity="1.000000" stroke="none" 
	d="
M324.817535,368.708221 
	C326.238220,363.880707 327.577362,359.449707 329.100098,354.411102 
	C342.433838,358.139282 355.471710,361.784729 368.890808,365.536774 
	C364.971771,379.210754 361.189331,392.408173 357.208466,406.297913 
	C343.902313,402.614441 330.868988,399.006500 317.167450,395.213593 
	C319.771545,386.230347 322.253754,377.667542 324.817535,368.708221 
z"/>
<path fill="#FAFAFA" opacity="1.000000" stroke="none" 
	d="
M581.667114,417.545837 
	C585.322632,404.898895 588.844360,392.633423 592.481506,379.966003 
	C605.839783,383.714417 618.714111,387.327057 631.877380,391.020752 
	C627.897827,405.042084 624.069275,418.531128 620.132263,432.402435 
	C607.608337,428.800598 595.532959,425.302979 583.438721,421.871765 
	C581.178711,421.230560 580.374146,420.110199 581.667114,417.545837 
z"/>
<path fill="#FAFAFA" opacity="1.000000" stroke="none" 
	d="
M291.965027,350.911804 
	C288.657288,362.441315 285.446899,373.565857 282.159637,384.956787 
	C268.689056,381.184692 255.494751,377.489960 242.076645,373.732574 
	C245.981476,360.151489 249.772766,346.965302 253.801804,332.952148 
	C266.978851,336.781067 280.062469,340.582855 293.528198,344.495636 
	C292.983063,346.731201 292.522705,348.619019 291.965027,350.911804 
z"/>
<path fill="#FAFAFA" opacity="1.000000" stroke="none" 
	d="
M610.470032,302.502991 
	C607.827881,311.484985 605.337341,320.092804 602.781677,328.925934 
	C589.325012,325.120789 576.137390,321.391754 562.676208,317.585327 
	C566.707520,303.848907 570.583374,290.642120 574.629089,276.856659 
	C587.939087,280.676361 601.081299,284.447906 614.431641,288.279175 
	C613.078003,293.199799 611.849854,297.664307 610.470032,302.502991 
z"/>
<path fill="#FBFBFB" opacity="1.000000" stroke="none" 
	d="
M122.461288,288.581696 
	C121.199631,289.212982 119.959229,289.906219 118.982033,289.638580 
	C106.824402,286.308502 94.705017,282.838806 82.061684,279.259460 
	C85.919792,265.784729 89.729240,252.479965 93.770515,238.365479 
	C106.803467,242.152573 119.773315,245.921326 133.588669,249.935760 
	C129.877197,262.864471 126.241028,275.530792 122.461288,288.581696 
z"/>
<path fill="#FAFAFA" opacity="1.000000" stroke="none" 
	d="
M292.227356,338.902039 
	C279.850342,335.479645 267.891357,332.129913 255.319138,328.608398 
	C259.239960,314.930023 263.052216,301.630341 266.984192,287.913055 
	C280.327454,291.717316 293.452362,295.459351 306.901184,299.293701 
	C303.184204,312.334595 299.651123,324.913025 295.905853,337.427917 
	C295.674896,338.199646 293.770966,338.470703 292.227356,338.902039 
z"/>
<path fill="#FBFBFB" opacity="1.000000" stroke="none" 
	d="
M298.042999,242.881378 
	C292.537811,241.395706 287.429718,239.995972 281.673981,238.418793 
	C285.556519,224.893356 289.380219,211.572861 293.410980,197.531128 
	C306.534027,201.181610 319.567047,204.807053 333.114624,208.575638 
	C329.178192,222.280594 325.350525,235.606842 321.388702,249.400223 
	C313.416565,247.165497 305.928314,245.066422 298.042999,242.881378 
z"/>
<path fill="#FBFBFB" opacity="1.000000" stroke="none" 
	d="
M77.676422,293.595795 
	C78.717812,290.217651 79.638756,287.225311 80.690323,283.808594 
	C93.986992,287.476593 107.007874,291.068512 120.559128,294.806763 
	C116.606041,308.457062 112.794037,321.620148 108.812317,335.369293 
	C95.569717,331.688477 82.407936,328.030121 68.655586,324.207611 
	C71.684502,313.921295 74.620239,303.951447 77.676422,293.595795 
z"/>
<path fill="#FBFBFB" opacity="1.000000" stroke="none" 
	d="
M256.585266,231.272827 
	C250.439606,229.552460 244.683502,227.954971 238.181274,226.150421 
	C242.215271,212.322540 246.181717,198.726181 250.201797,184.945999 
	C263.419434,188.752884 276.155090,192.420929 289.495789,196.263260 
	C285.433350,210.076981 281.476501,223.531723 277.423462,237.313568 
	C270.323151,235.258728 263.649017,233.327225 256.585266,231.272827 
z"/>
<path fill="#FAFAFA" opacity="1.000000" stroke="none" 
	d="
M528.410522,304.356201 
	C527.213074,305.276978 526.007141,306.517395 525.184082,306.301117 
	C512.845703,303.058777 500.557861,299.624359 487.939514,296.147369 
	C491.853699,282.594635 495.660645,269.413147 499.732086,255.315979 
	C512.937134,259.020172 525.898376,262.656006 539.347168,266.428589 
	C535.692810,279.179779 532.136475,291.589050 528.410522,304.356201 
z"/>
<path fill="#FBFBFB" opacity="1.000000" stroke="none" 
	d="
M341.138092,311.941772 
	C342.551453,311.064270 344.043365,309.924652 345.153412,310.220001 
	C357.169342,313.417267 369.125305,316.839996 381.798096,320.397797 
	C377.917419,333.910095 374.139221,347.065704 370.137604,360.999268 
	C356.951538,357.262054 343.960297,353.580078 330.268127,349.699432 
	C333.903534,337.092133 337.471405,324.719086 341.138092,311.941772 
z"/>
<path fill="#FAFAFA" opacity="1.000000" stroke="none" 
	d="
M150.885254,190.968552 
	C149.929703,193.924316 148.974167,196.880066 147.901108,200.199280 
	C141.083374,198.340851 134.407455,196.521072 127.127441,194.455902 
	C125.853455,194.133652 125.183571,194.056778 124.513695,193.979904 
	C119.315674,192.375671 114.117653,190.771423 108.208862,188.947830 
	C112.143814,175.518265 116.037018,162.231155 120.081139,148.429001 
	C133.324265,152.172119 146.198624,155.811020 159.609680,159.601608 
	C158.645859,163.250000 157.733612,166.703232 156.538147,170.806244 
	C154.465027,177.960205 152.675140,184.464371 150.885254,190.968552 
z"/>
<path fill="#FBFBFB" opacity="1.000000" stroke="none" 
	d="
M319.422882,255.849747 
	C315.693115,268.792206 312.116730,281.388062 308.348846,294.658569 
	C295.147400,291.005737 282.260132,287.439850 268.723877,283.694397 
	C272.581329,270.075043 276.352112,256.761780 280.291748,242.852295 
	C293.140411,246.521393 305.707153,250.091354 318.247559,253.751785 
	C318.812744,253.916733 319.138824,254.900665 319.422882,255.849747 
z"/>
<path fill="#FBFBFB" opacity="1.000000" stroke="none" 
	d="
M127.008316,198.919342 
	C133.307037,200.881805 139.605774,202.844284 146.608734,205.026169 
	C142.681915,218.427170 138.801453,231.669998 134.759460,245.464066 
	C121.346748,241.591385 108.355614,237.840408 95.080750,234.007523 
	C99.085236,220.310013 102.925110,207.175552 106.910774,193.542419 
	C112.428413,195.086304 117.656631,196.549194 123.512619,198.202728 
	C125.096352,198.568680 126.052338,198.744003 127.008316,198.919342 
z"/>
<path fill="#FAFAFA" opacity="1.000000" stroke="none" 
	d="
M210.873032,306.905334 
	C209.969955,309.990601 209.177826,312.688385 208.272552,315.771545 
	C195.318756,312.060394 182.489136,308.384827 169.154373,304.564545 
	C173.131439,290.989624 177.037628,277.656677 181.120071,263.722137 
	C194.106934,267.331848 206.948502,270.901184 220.228760,274.592468 
	C217.062057,285.528168 214.023026,296.023041 210.873032,306.905334 
z"/>
<path fill="#FBFBFB" opacity="1.000000" stroke="none" 
	d="
M145.800323,223.757446 
	C147.469635,217.803497 149.057114,212.244934 150.829102,206.040329 
	C163.918839,209.760193 176.721725,213.398529 189.993896,217.170227 
	C186.057907,230.811493 182.217896,244.120178 178.229065,257.944611 
	C164.854324,254.215408 151.762741,250.565170 138.687897,246.919586 
	C141.049286,239.272858 143.383896,231.712860 145.800323,223.757446 
z"/>
<path fill="#FBFBFB" opacity="1.000000" stroke="none" 
	d="
M160.645828,171.299179 
	C161.717590,167.990860 162.789352,164.682556 164.076553,160.709198 
	C177.090591,164.364792 190.047943,168.004456 203.455780,171.770660 
	C199.412827,185.475342 195.495514,198.754196 191.446136,212.480652 
	C178.113693,208.764633 165.234207,205.174866 152.054214,201.501343 
	C153.068069,198.088074 153.956818,195.095993 155.042648,191.408905 
	C157.041763,184.242340 158.843796,177.770752 160.645828,171.299179 
z"/>
<path fill="#FAFAFA" opacity="1.000000" stroke="none" 
	d="
M249.778503,234.300262 
	C258.627014,236.797546 267.089233,239.165741 276.238770,241.726273 
	C272.222504,255.365463 268.313965,268.638702 264.224609,282.526001 
	C251.256790,278.818848 238.580200,275.194916 225.290756,271.395813 
	C229.274414,257.683472 233.138565,244.382523 237.084244,230.800980 
	C241.455719,231.997986 245.423950,233.084564 249.778503,234.300262 
z"/>
<path fill="#FBFBFA" opacity="1.000000" stroke="none" 
	d="
M221.965836,226.075958 
	C225.809982,227.217224 229.258362,228.274384 233.010590,229.424698 
	C228.999832,243.118271 225.107407,256.407745 221.138702,269.957733 
	C208.244812,266.366547 195.682556,262.867737 182.363312,259.158112 
	C186.324844,245.647461 190.218307,232.368896 194.317780,218.387787 
	C203.523239,220.956345 212.546661,223.474106 221.965836,226.075958 
z"/>
<path fill="#161617" opacity="1.000000" stroke="none" 
	d="
M523.584595,454.305664 
	C534.910156,457.068329 545.990234,460.082275 557.395020,463.302917 
	C556.812195,464.500122 555.904602,465.490692 554.929260,466.890808 
	C544.422852,464.380005 533.984253,461.459625 523.264648,458.307861 
	C523.102173,456.903320 523.220581,455.730103 523.584595,454.305664 
z"/>
<path fill="#131313" opacity="1.000000" stroke="none" 
	d="
M160.164490,171.218750 
	C158.843796,177.770752 157.041763,184.242340 155.064896,190.997070 
	C153.771622,191.249771 152.653198,191.219284 151.210007,191.078674 
	C152.675140,184.464371 154.465027,177.960205 156.508331,171.198730 
	C157.735550,171.007050 158.709366,171.072678 160.164490,171.218750 
z"/>
<path fill="#131313" opacity="1.000000" stroke="none" 
	d="
M127.003120,198.487244 
	C126.052338,198.744003 125.096352,198.568680 123.928894,198.185989 
	C123.741478,196.914536 123.765533,195.850418 124.151642,194.383118 
	C125.183571,194.056778 125.853455,194.133652 126.720001,194.403336 
	C126.943756,195.749146 126.970840,196.902161 127.003120,198.487244 
z"/>
<path fill="#131313" opacity="1.000000" stroke="none" 
	d="
M137.470367,244.451050 
	C137.522537,244.420242 137.418182,244.481857 137.470367,244.451050 
z"/>
</svg>